# xmcd
# 
# Track frame offsets:
#     150
#     25287
#     42390
#     64680
#     79725
#     93850
#     111295
#     131310
#     149190
#     168272
# 
# Disc length: 2542
# 
# Revision: 21
# Processed by: cddbd v1.5.2PL0 Copyright (c) Steve Scherf et al.
# Submitted via: fre:ac v1.0.17
# 
DISCID=8509ec0a
DTITLE=TOTO - TOTO IV
DYEAR=1999
DGENRE=Rock
TTITLE0=Rosanna
TTITLE1=Make Believe
TTITLE2=I Won't Hold You Back
TTITLE3=Good For You
TTITLE4=It's A Feeling
TTITLE5=Afraid Of Love
TTITLE6=Lovers In The Night
TTITLE7=We Made It
TTITLE8=Waiting For Your Love
TTITLE9=Africa
EXTD=Record number: CBS 450088-2\n\nDavid Hungate - b\nBobby Kimball - voc\nSteve Lukather - g, voc\nDavid Paich - keyb, voc\nJeff Porcarp - dr, perc\nSteve Porcaro - keyb, voc YEAR: 1999
EXTT0=
EXTT1=
EXTT2=
EXTT3=
EXTT4=
EXTT5=
EXTT6=
EXTT7=
EXTT8=
EXTT9=
PLAYORDER=
